# xmcd
#
# Track frame offsets:
#	150
#	10597
#	25840
#	51735
#	65197
#	77617
#	90297
#	109385
#	121285
#
# Disc length: 1759 seconds
#
# Revision: 0
# Processed by: cddbd v1.5.1PL0 Copyright (c) Steve Scherf et al.
# Submitted via: dBpowerAMP V4.0
#
DISCID=7006dd09
DTITLE=Various Artist - Legends of the Blues
DYEAR=1900
DGENRE=Blues
TTITLE0=Sonny Boy Williams - Let your conscience be your guide
TTITLE1=Josh White - Good mornin' blues
TTITLE2=Son House - Preachin' blues
TTITLE3=Memphis Slim - Slim's blues
TTITLE4=Little Walter - Tell me mama
TTITLE5=Otis Rush - Lonely man
TTITLE6=Etta James - Baby, what do you want me to do
TTITLE7=Bo Didley - Walkin' and talkin'
TTITLE8=Josh White - Baby you won't let me go
EXTD=
EXTT0=
EXTT1=
EXTT2=
EXTT3=
EXTT4=
EXTT5=
EXTT6=
EXTT7=
EXTT8=
PLAYORDER=
